<?xml version="1.0" standalone="no"?>
<!DOCTYPE svg PUBLIC "-//W3C//DTD SVG 20010904//EN"
 "http://www.w3.org/TR/2001/REC-SVG-20010904/DTD/svg10.dtd">
<svg version="1.0" xmlns="http://www.w3.org/2000/svg"
 width="400.000000pt" height="400.000000pt" viewBox="0 0 400.000000 400.000000"
 preserveAspectRatio="xMidYMid meet">
<metadata>
Created by potrace 1.11, written by Peter Selinger 2001-2013
</metadata>
<g transform="translate(0.000000,400.000000) scale(0.100000,-0.100000)"
fill="#000000" stroke="none">
<path d="M1383 3965 c-141 -70 -226 -175 -240 -297 l-6 -50 -36 5 c-20 2 -63
14 -95 26 -65 24 -91 22 -127 -10 -19 -17 -20 -20 -5 -15 24 8 94 -26 129 -61
l26 -28 -54 3 c-30 2 -55 0 -55 -5 0 -4 23 -23 50 -42 28 -18 50 -38 50 -42 0
-17 -55 -31 -107 -27 -37 3 -53 1 -53 -7 0 -7 -29 -69 -64 -139 -75 -148 -86
-203 -67 -354 11 -95 69 -384 95 -477 47 -166 59 -207 82 -271 l25 -71 61 -10
61 -10 -7 91 c-19 266 -18 339 4 511 28 220 52 319 106 432 79 166 173 238
346 266 56 9 88 7 210 -13 180 -29 469 -32 616 -6 169 30 269 19 397 -43 137
-65 226 -164 289 -320 l31 -76 -2 -235 c0 -129 -4 -319 -8 -421 l-7 -186 62
11 c60 11 62 12 76 51 44 122 152 560 175 706 21 136 21 185 2 437 l-6 83 -23
-22 -24 -22 0 36 c0 39 -8 45 -29 25 -21 -21 14 56 50 108 17 25 44 61 60 79
l30 33 -58 -15 c-32 -8 -80 -25 -108 -38 -27 -13 -51 -23 -52 -21 -4 4 47 129
58 141 32 33 -36 7 -82 -32 -15 -12 -17 -10 -24 24 -7 41 -67 127 -118 171
-110 95 -112 97 -94 123 24 34 21 39 -20 39 -27 0 -45 -8 -66 -27 l-29 -28 7
28 7 27 -685 0 -684 0 -70 -35z"/>
<path d="M1288 2626 c-47 -17 -121 -60 -139 -82 -9 -11 5 -7 41 12 48 25 65
29 140 28 70 0 110 -7 228 -42 117 -36 154 -42 209 -40 54 2 68 6 71 20 5 27
-47 47 -217 84 -167 36 -270 42 -333 20z"/>
<path d="M2454 2606 c-165 -37 -217 -58 -212 -84 3 -14 17 -18 71 -20 55 -2
92 4 209 40 118 35 158 42 228 42 73 1 92 -3 140 -27 l55 -28 -30 26 c-106 92
-220 105 -461 51z"/>
<path d="M1360 2440 c-53 -11 -140 -50 -140 -62 0 -15 98 -156 127 -183 27
-24 33 -25 143 -24 63 1 144 5 180 9 l65 7 -90 2 c-86 2 -89 2 -58 16 60 26
81 110 43 172 l-19 32 26 -10 c31 -11 77 -43 117 -78 25 -23 27 -24 18 -5 -17
33 -71 74 -131 102 -43 20 -74 26 -145 28 -50 2 -111 -1 -136 -6z m113 -30
c-40 -24 -53 -48 -53 -99 0 -39 38 -101 62 -101 6 0 0 9 -13 19 -22 18 -23 20
-5 27 11 4 21 2 26 -5 5 -10 9 -9 13 3 11 28 37 6 37 -31 l0 -36 -85 5 c-100
5 -118 17 -165 112 l-30 60 27 15 c47 25 136 50 178 50 l40 1 -32 -20z m132
-25 c28 -27 33 -55 11 -55 -25 0 -76 34 -76 51 0 37 31 39 65 4z"/>
<path d="M2495 2441 c-52 -14 -99 -37 -139 -70 -68 -54 -72 -75 -5 -26 51 38
118 75 134 75 2 0 -10 -13 -26 -29 -41 -41 -41 -108 -1 -149 15 -15 21 -21 15
-12 -18 23 -16 30 7 30 11 0 20 -6 20 -12 0 -8 5 -6 11 4 15 27 39 10 39 -28
l0 -34 -107 -1 -108 -2 85 -9 c47 -4 132 -7 189 -6 l104 3 53 69 c29 37 60 83
70 102 18 33 18 34 -1 48 -56 41 -259 69 -340 47z m206 -30 c102 -35 108 -40
99 -72 -11 -39 -42 -88 -74 -118 -19 -18 -39 -24 -93 -28 -65 -4 -67 -3 -38
10 40 19 65 58 65 102 0 62 -28 98 -90 118 -8 3 6 6 31 6 25 1 70 -7 100 -18z
m-86 -26 c28 -27 33 -55 11 -55 -30 0 -76 35 -76 58 0 30 34 29 65 -3z"/>
<path d="M1420 934 c-92 -52 -157 -104 -308 -249 l-133 -128 -167 -52 c-196
-62 -353 -120 -550 -204 -78 -34 -150 -61 -160 -61 -21 0 -67 -30 -87 -56 -10
-13 -14 -45 -15 -101 l0 -83 649 0 649 0 -50 200 -50 199 83 98 c46 54 92 104
104 112 11 8 48 42 83 76 l62 62 -1 84 c-1 97 -9 133 -29 136 -8 2 -44 -13
-80 -33z"/>
<path d="M2559 943 c-6 -16 -9 -68 -7 -116 l3 -88 60 -58 c33 -31 69 -64 80
-72 12 -8 58 -58 104 -112 l83 -99 -32 -126 c-18 -70 -40 -160 -50 -199 l-17
-73 608 0 609 0 0 119 0 119 -32 7 c-18 4 -91 32 -163 62 -188 80 -347 138
-537 198 l-167 52 -133 128 c-73 70 -158 147 -189 170 -59 46 -178 115 -198
115 -6 0 -16 -12 -22 -27z"/>
</g>
</svg>
